<svg id="Design" xmlns="http://www.w3.org/2000/svg" xmlns:xlink="http://www.w3.org/1999/xlink" viewBox="0 0 100 60"><defs><style>.cls-1{fill:none;stroke:#fa0;stroke-linecap:round;stroke-linejoin:round;}.cls-2{clip-path:url(#clip-path);}.cls-3{font-size:17.62px;fill:#fa0;font-family:Cera-Regular, Cera;}</style><clipPath id="clip-path"><circle class="cls-1" cx="38.24" cy="19.88" r="15.02"/></clipPath></defs><title>GIF-Studio-OurValues-0Artboard 151 copy 5</title><path class="cls-1" d="M51.05,27.78,62,38.68a2.11,2.11,0,0,1,0,3L60.56,43a2.11,2.11,0,0,1-3,0l-10.8-10.8"/><path class="cls-1" d="M52.6,16.5c.17,2,.26,1.8.27,2.76.11,8.2-5.51,15.64-14.91,16h0L38,55.5H76.5v-39Z"/><g class="cls-2"><path class="cls-1" d="M30.5,50.86a43.46,43.46,0,0,1,5.39-.42c12.76,0,23.65,11.77,23.65,24.53,0,0,.53,1.53.53,1.53H89.5v-61h-59Z"/></g><circle class="cls-1" cx="38.24" cy="19.88" r="15.02"/><text class="cls-3" transform="translate(36.84 26.53)">a</text></svg>