<svg id="Design" xmlns="http://www.w3.org/2000/svg" viewBox="0 0 100 60"><defs><style>.cls-1{fill:none;stroke:#fa0;stroke-linecap:round;stroke-linejoin:round;}</style></defs><title>GIF-Studio-OurValues-0Artboard 151 copy 6</title><path class="cls-1" d="M40.3,19.46,45.2,11C46.49,8.77,48,5.09,50.56,5.12l1.86,0c3,0,4.73,3.95,6.26,6.47l5.86,9.67,4-10-4,10-10.8-1.32"/><path class="cls-1" d="M67.25,26.58l4.63,8.61c1.22,2.27,3.58,5.47,2.19,7.65l-1,1.6c-1.58,2.49-5.84,2-8.79,1.93L53,46.27l6.37,8.64L53,46.27l6.8-8.49"/><path class="cls-1" d="M46.8,46.18l-9.77,0c-2.58,0-6.51.58-7.78-1.67l-1-1.59c-1.45-2.57,1-6.07,2.44-8.67l5.41-9.93L25.51,25.9l10.62-1.55,4.29,10"/></svg>