<?xml version="1.0" encoding="utf-8"?>
<!-- Generator: Adobe Illustrator 21.0.2, SVG Export Plug-In . SVG Version: 6.00 Build 0)  -->
<svg version="1.1" xmlns="http://www.w3.org/2000/svg" xmlns:xlink="http://www.w3.org/1999/xlink" x="0px" y="0px"
	 viewBox="0 0 32 38" style="enable-background:new 0 0 32 38;" xml:space="preserve">
<style type="text/css">
	.st0{fill:#FFFFFF;}
	.st1{fill:#FFAA00;}
	.st2{fill:#FFFFFF;}
	.st3{fill:none;}
	.st4{fill:none;stroke:#DDDCDE;stroke-linecap:round;stroke-miterlimit:10;}
	.st5{fill:none;stroke:#3A3A3A;stroke-width:2;stroke-miterlimit:10;}
	.st6{display:none;}
	.st7{display:inline;}
</style>
<g id="Design">
	<g id="XMLID_53_" class="logo_svg">
		<path id="XMLID_63_" class="st2" d="M15.6,15.4c0-3.8-3.1-6.8-6.8-6.8s-6.8,3.1-6.8,6.8s3.1,6.8,6.8,6.8S15.6,19.1,15.6,15.4z
			 M8.8,19.2c-2.1,0-3.8-1.7-3.8-3.8s1.7-3.8,3.8-3.8c2.1,0,3.8,1.7,3.8,3.8S10.8,19.2,8.8,19.2z"/>
		<rect id="XMLID_62_" x="15.5" y="8.6" class="st2" width="3" height="13.5"/>
		<path id="XMLID_61_" class="st2" d="M13.6,24.2c-1.2-1.3-2.9-2-4.8-2.1C5.1,22,2,25,1.9,28.8l0,0l3,0l0,0c0-2.1,1.8-3.8,3.8-3.7
			l0,0l0,0c1,0,2,0.5,2.7,1.2c0.7,0.7,1.1,1.6,1.1,2.7l0,0l0,0c0,2.1-1.8,3.8-3.8,3.7l0,0l0,3l0,0c3.8,0.1,6.9-2.9,6.9-6.7
			C15.6,27.1,14.9,25.4,13.6,24.2z"/>
		<circle id="XMLID_60_" class="st2" cx="28.1" cy="20.3" r="1.8"/>
		<circle id="XMLID_59_" class="st2" cx="17.3" cy="4.1" r="1.8"/>
		<path id="XMLID_58_" class="st2" d="M26.9,8.5H24v-1c0-1.5,1.1-2.3,2.1-2.3c1.1,0,2.1,0.7,2.3,1.6L29.9,4c-0.8-1-2.6-1.8-3.9-1.8
			c-2.7,0-5,1.9-5,5.4v0.8h-5.5v3H21v10.6h3V11.5h2l1.6-3L26.9,8.5z"/>
	</g>
</g>
<g id="Guidelines" class="st6">
</g>
</svg>
