<svg id="Design" xmlns="http://www.w3.org/2000/svg" viewBox="0 0 100 60"><defs><style>.cls-1{fill:none;stroke:#fa0;stroke-linecap:round;stroke-linejoin:round;}</style></defs><title>GIF-Studio-OurValues-0Artboard 151 copy 3</title><path class="cls-1" d="M54.68,35.64c7.91.36,14.61,2.89,19.71,7.5a27.27,27.27,0,0,1,7.09,10.2l-4,1.58C74.47,41.49,63.33,37,54.68,35.64Z"/><path class="cls-1" d="M45.67,18.61a9.92,9.92,0,0,0-.72-7.67l3.7-.21a13.94,13.94,0,0,1-.18,6.3c-1.18,4.35-4.46,7.33-7,9.06A20.06,20.06,0,0,0,45.67,18.61Z"/><path class="cls-1" d="M83.81,38l-2.36-.23L83.07,36a.63.63,0,0,0,.15-.57l-.52-2.32,2.15,1a.63.63,0,0,0,.59,0l2-1.21-.29,2.36a.63.63,0,0,0,.21.55l1.78,1.57-2.33.46a.63.63,0,0,0-.46.37l-.95,2.18-1.15-2.08A.63.63,0,0,0,83.81,38Z"/><path class="cls-1" d="M30.08,25.35a.6.6,0,0,0-1,0L20.65,37.27a.59.59,0,0,0-.22.31L10.92,51a.6.6,0,0,0,.65.92l29.91-8.71a.6.6,0,0,0,.32-.91Z"/><path class="cls-1" d="M68.7,30.22a.6.6,0,1,1-1.15-.31L68,28.28a.6.6,0,1,1,1.15.31Z"/><path class="cls-1" d="M68.82,25.21l.44-1.62a.6.6,0,1,1,1.15.31L70,25.53a.6.6,0,1,1-1.15-.31Z"/><path class="cls-1" d="M72.11,27.14a.6.6,0,0,1-.31,1.15l-1.62-.44a.6.6,0,0,1,.31-1.15Z"/><path class="cls-1" d="M67.84,26.6a.6.6,0,0,1-.73.42l-1.62-.44a.6.6,0,0,1,.31-1.15l1.62.44A.6.6,0,0,1,67.84,26.6Z"/><path class="cls-1" d="M55.37,50.76l-.94,2.18-1.15-2.08a.63.63,0,0,0-.49-.32l-2.36-.23L52,48.57a.63.63,0,0,0,.15-.57l-.52-2.32,2.15,1a.63.63,0,0,0,.59,0l2-1.21-.29,2.36a.63.63,0,0,0,.21.55l1.78,1.57-2.33.46A.63.63,0,0,0,55.37,50.76Z"/><line class="cls-1" x1="36.29" y1="44.33" x2="26.48" y2="29.97"/><line class="cls-1" x1="31.09" y1="45.94" x2="22.83" y2="34.63"/><line class="cls-1" x1="25.11" y1="47.11" x2="19.44" y2="38.85"/><line class="cls-1" x1="20.43" y1="49.34" x2="16.39" y2="43.28"/><path class="cls-1" d="M72,7.59a2.78,2.78,0,0,1,2.26-2.31,2.89,2.89,0,0,1,.46,0,2.86,2.86,0,0,1,2,.68l.74.65.71-.69a2.86,2.86,0,0,1,2-.79,2.89,2.89,0,0,1,.46,0,2.78,2.78,0,0,1,1.73,4.63l-.45.54c-.74.89-2.33,2.51-3.36,3.49a1.24,1.24,0,0,1-.76.34h-.15a1.24,1.24,0,0,1-.78-.3c-1.08-.92-2.76-2.46-3.54-3.3L72.79,10A2.78,2.78,0,0,1,72,7.59Z"/><path class="cls-1" d="M60.86,20.23a.6.6,0,1,1-1.15-.31l.44-1.62a.6.6,0,1,1,1.15.31Z"/><path class="cls-1" d="M61,15.22l.44-1.62a.6.6,0,1,1,1.15.31l-.44,1.62A.6.6,0,1,1,61,15.22Z"/><path class="cls-1" d="M64.27,17.15A.6.6,0,0,1,64,18.3l-1.62-.44a.6.6,0,0,1,.31-1.15Z"/><path class="cls-1" d="M60,16.61a.6.6,0,0,1-.73.42l-1.62-.44A.6.6,0,0,1,58,15.44l1.62.44A.6.6,0,0,1,60,16.61Z"/><path class="cls-1" d="M35.12,21.72A.6.6,0,1,1,34,21.41l.44-1.62a.6.6,0,1,1,1.15.31Z"/><path class="cls-1" d="M35.24,16.72l.44-1.62a.6.6,0,1,1,1.15.31L36.39,17a.6.6,0,1,1-1.15-.31Z"/><path class="cls-1" d="M38.53,18.64a.6.6,0,0,1-.31,1.15l-1.62-.44a.6.6,0,0,1,.31-1.15Z"/><path class="cls-1" d="M34.26,18.1a.6.6,0,0,1-.73.42l-1.62-.44a.6.6,0,0,1,.31-1.15l1.62.44A.6.6,0,0,1,34.26,18.1Z"/></svg>