<svg id="Design" xmlns="http://www.w3.org/2000/svg" viewBox="0 0 100 60"><defs><style>.cls-1{fill:none;stroke:#fa0;stroke-linecap:round;stroke-linejoin:round;}</style></defs><title>GIF-Studio-OurValues-0Artboard 151 copy 2</title><polyline class="cls-1" points="21 12.5 11.5 12.5 11.5 55.5 73.5 55.5 73.5 48"/><path class="cls-1" d="M88.95,47H29.29c-8.52,0-8.52-8.52-8.52-8.52v-34H80.19v34S80.43,47,88.95,47Z"/><line class="cls-1" x1="41.02" y1="14.35" x2="46.28" y2="19.61"/><line class="cls-1" x1="41.02" y1="19.61" x2="46.28" y2="14.35"/><line class="cls-1" x1="28.25" y1="24.37" x2="33.51" y2="29.63"/><line class="cls-1" x1="28.25" y1="29.63" x2="33.51" y2="24.37"/><line class="cls-1" x1="63.33" y1="31.8" x2="68.59" y2="37.06"/><line class="cls-1" x1="63.33" y1="37.06" x2="68.59" y2="31.8"/><polyline class="cls-1" points="71 26.5 64.5 26.5 64.5 21"/><line class="cls-1" x1="65.93" y1="24.52" x2="73.41" y2="17.04"/><polyline class="cls-1" points="53.78 16.75 56.29 12.8 60.48 15.47"/><rect class="cls-1" x="38.26" y="31.23" width="9.68" height="9.68" rx="4.84" ry="4.84"/><path class="cls-1" d="M56.29,12.8c4.8,12.71-2.81,21.5-8,22.63"/></svg>